<?xml version="1.0" encoding="UTF-8" standalone="no"?>
<!DOCTYPE svg PUBLIC "-//W3C//DTD SVG 1.1//EN"
 "http://www.w3.org/Graphics/SVG/1.1/DTD/svg11.dtd">
<!-- Generated by graphviz version 2.40.1 (20161225.0304)
 -->
<!-- Title: compactRelationshipsDiagram Pages: 1 -->
<svg width="347pt" height="239pt"
 viewBox="0.00 0.00 347.30 239.20" xmlns="http://www.w3.org/2000/svg" xmlns:xlink="http://www.w3.org/1999/xlink">
<g id="graph0" class="graph" transform="scale(1 1) rotate(0) translate(4 235.2)">
<title>compactRelationshipsDiagram</title>
<polygon fill="#ffffff" stroke="transparent" points="-4,4 -4,-235.2 343.3047,-235.2 343.3047,4 -4,4"/>
<text text-anchor="middle" x="72.4936" y="-7.3" font-family="Helvetica,sans-Serif" font-size="11.00" fill="#000000">Generated by SchemaSpy</text>
<!-- tsk_task_group -->
<g id="node1" class="node">
<title>tsk_task_group</title>
<g id="a_node1"><a xlink:href="../../tables/tsk_task_group.html" xlink:title="tsk_task_group" target="_top">
<polygon fill="#ffffff" stroke="transparent" points="8,-60.2 8,-165.2 148,-165.2 148,-60.2 8,-60.2"/>
<polygon fill="#f5f5f5" stroke="transparent" points="8,-141.7 8,-164.7 148,-164.7 148,-141.7 8,-141.7"/>
<polygon fill="none" stroke="#000000" points="8,-141.7 8,-164.7 148,-164.7 148,-141.7 8,-141.7"/>
<text text-anchor="start" x="13" y="-150.3" font-family="Helvetica,sans-Serif" font-weight="bold" font-size="11.00" fill="#000000">tsk_task_group</text>
<text text-anchor="start" x="113.5219" y="-149.8" font-family="Helvetica,sans-Serif" font-size="11.00" fill="#000000">[table]</text>
<polygon fill="none" stroke="#000000" points="8,-119.7 8,-141.7 148,-141.7 148,-119.7 8,-119.7"/>
<image xlink:href="../../images/primaryKeys.png" width="11px" height="12px" preserveAspectRatio="xMinYMin meet" x="13" y="-136.7"/>
<text text-anchor="start" x="37" y="-126.8" font-family="Helvetica,sans-Serif" font-size="11.00" fill="#000000">c_pk</text>
<polygon fill="#ffffff" stroke="transparent" points="8,-97.7 8,-119.7 148,-119.7 148,-97.7 8,-97.7"/>
<polygon fill="none" stroke="#000000" points="8,-97.7 8,-119.7 148,-119.7 148,-97.7 8,-97.7"/>
<text text-anchor="start" x="37" y="-104.8" font-family="Helvetica,sans-Serif" font-size="11.00" fill="#000000">c_pid</text>
<polygon fill="none" stroke="#000000" points="8,-78.7 8,-97.7 148,-97.7 148,-78.7 8,-78.7"/>
<text text-anchor="start" x="11" y="-84.8" font-family="Helvetica,sans-Serif" font-size="11.00" fill="#000000">...</text>
<polygon fill="#ffffff" stroke="transparent" points="8,-59.7 8,-78.7 67,-78.7 67,-59.7 8,-59.7"/>
<polygon fill="none" stroke="#000000" points="8,-59.7 8,-78.7 67,-78.7 67,-59.7 8,-59.7"/>
<text text-anchor="start" x="11" y="-65.8" font-family="Helvetica,sans-Serif" font-size="11.00" fill="#000000"> &#160;</text>
<polygon fill="#ffffff" stroke="transparent" points="67,-59.7 67,-78.7 103,-78.7 103,-59.7 67,-59.7"/>
<polygon fill="none" stroke="#000000" points="67,-59.7 67,-78.7 103,-78.7 103,-59.7 67,-59.7"/>
<text text-anchor="start" x="93.8862" y="-65.8" font-family="Helvetica,sans-Serif" font-size="11.00" fill="#000000"> &#160;</text>
<polygon fill="#ffffff" stroke="transparent" points="103,-59.7 103,-78.7 148,-78.7 148,-59.7 103,-59.7"/>
<polygon fill="none" stroke="#000000" points="103,-59.7 103,-78.7 148,-78.7 148,-59.7 103,-59.7"/>
<text text-anchor="start" x="129.4053" y="-65.8" font-family="Helvetica,sans-Serif" font-size="11.00" fill="#000000">1 &gt;</text>
</a>
</g>
</g>
<!-- tsk_task -->
<g id="node2" class="node">
<title>tsk_task</title>
<g id="a_node2"><a xlink:href="../../tables/tsk_task.html" xlink:title="tsk_task" target="_top">
<polygon fill="#ffffff" stroke="transparent" points="197,-38.2 197,-209.2 311,-209.2 311,-38.2 197,-38.2"/>
<polygon fill="#f5f5f5" stroke="transparent" points="197,-185.7 197,-208.7 311,-208.7 311,-185.7 197,-185.7"/>
<polygon fill="none" stroke="#000000" points="197,-185.7 197,-208.7 311,-208.7 311,-185.7 197,-185.7"/>
<text text-anchor="start" x="202" y="-194.3" font-family="Helvetica,sans-Serif" font-weight="bold" font-size="11.00" fill="#000000">tsk_task</text>
<text text-anchor="start" x="276.0437" y="-193.8" font-family="Helvetica,sans-Serif" font-size="11.00" fill="#000000">[table]</text>
<polygon fill="none" stroke="#000000" points="197,-163.7 197,-185.7 311,-185.7 311,-163.7 197,-163.7"/>
<image xlink:href="../../images/foreignKeys.png" width="11px" height="12px" preserveAspectRatio="xMinYMin meet" x="202" y="-180.7"/>
<text text-anchor="start" x="217" y="-170.8" font-family="Helvetica,sans-Serif" font-size="11.00" fill="#000000">c_parent_task</text>
<polygon fill="none" stroke="#000000" points="197,-141.7 197,-163.7 311,-163.7 311,-141.7 197,-141.7"/>
<image xlink:href="../../images/primaryKeys.png" width="11px" height="12px" preserveAspectRatio="xMinYMin meet" x="202" y="-158.7"/>
<text text-anchor="start" x="217" y="-148.8" font-family="Helvetica,sans-Serif" font-size="11.00" fill="#000000">c_pk</text>
<polygon fill="none" stroke="#000000" points="197,-119.7 197,-141.7 311,-141.7 311,-119.7 197,-119.7"/>
<image xlink:href="../../images/foreignKeys.png" width="11px" height="12px" preserveAspectRatio="xMinYMin meet" x="202" y="-136.7"/>
<text text-anchor="start" x="217" y="-126.8" font-family="Helvetica,sans-Serif" font-size="11.00" fill="#000000">c_task_group</text>
<polygon fill="#ffffff" stroke="transparent" points="197,-97.7 197,-119.7 311,-119.7 311,-97.7 197,-97.7"/>
<polygon fill="none" stroke="#000000" points="197,-97.7 197,-119.7 311,-119.7 311,-97.7 197,-97.7"/>
<text text-anchor="start" x="217" y="-104.8" font-family="Helvetica,sans-Serif" font-size="11.00" fill="#000000">c_pid</text>
<polygon fill="#ffffff" stroke="transparent" points="197,-75.7 197,-97.7 311,-97.7 311,-75.7 197,-75.7"/>
<polygon fill="none" stroke="#000000" points="197,-75.7 197,-97.7 311,-97.7 311,-75.7 197,-75.7"/>
<text text-anchor="start" x="217" y="-82.8" font-family="Helvetica,sans-Serif" font-size="11.00" fill="#000000">c_task_id</text>
<polygon fill="none" stroke="#000000" points="197,-56.7 197,-75.7 311,-75.7 311,-56.7 197,-56.7"/>
<text text-anchor="start" x="200" y="-62.8" font-family="Helvetica,sans-Serif" font-size="11.00" fill="#000000">...</text>
<polygon fill="#ffffff" stroke="transparent" points="197,-37.7 197,-56.7 248,-56.7 248,-37.7 197,-37.7"/>
<polygon fill="none" stroke="#000000" points="197,-37.7 197,-56.7 248,-56.7 248,-37.7 197,-37.7"/>
<text text-anchor="start" x="200" y="-43.8" font-family="Helvetica,sans-Serif" font-size="11.00" fill="#000000">&lt; 2</text>
<polygon fill="#ffffff" stroke="transparent" points="248,-37.7 248,-56.7 275,-56.7 275,-37.7 248,-37.7"/>
<polygon fill="none" stroke="#000000" points="248,-37.7 248,-56.7 275,-56.7 275,-37.7 248,-37.7"/>
<text text-anchor="start" x="265.8862" y="-43.8" font-family="Helvetica,sans-Serif" font-size="11.00" fill="#000000"> &#160;</text>
<polygon fill="#ffffff" stroke="transparent" points="275,-37.7 275,-56.7 311,-56.7 311,-37.7 275,-37.7"/>
<polygon fill="none" stroke="#000000" points="275,-37.7 275,-56.7 311,-56.7 311,-37.7 275,-37.7"/>
<text text-anchor="start" x="292.4053" y="-43.8" font-family="Helvetica,sans-Serif" font-size="11.00" fill="#000000">1 &gt;</text>
</a>
</g>
</g>
<!-- tsk_task&#45;&gt;tsk_task_group -->
<g id="edge2" class="edge">
<title>tsk_task:w&#45;&gt;tsk_task_group:e</title>
<path fill="none" stroke="#000000" d="M182.4909,-130.7C171.1774,-130.7 163.9931,-130.7 148,-130.7"/>
<polygon fill="#000000" stroke="#000000" points="189,-130.7001 197,-134.3 193,-130.7 197,-130.7 197,-130.7 197,-130.7 193,-130.7 197,-127.1 189,-130.7001 189,-130.7001"/>
<ellipse fill="none" stroke="#000000" cx="185.8" cy="-130.7001" rx="3.2" ry="3.2"/>
</g>
<!-- tsk_task&#45;&gt;tsk_task -->
<g id="edge1" class="edge">
<title>tsk_task:w&#45;&gt;tsk_task:e</title>
<path fill="none" stroke="#000000" d="M185.8321,-183.8651C153.8877,-211.9643 162.4688,-226.2 254,-226.2 355,-226.2 355,-186.8667 311,-152.7"/>
<polygon fill="#000000" stroke="#000000" points="190.8159,-179.7751 199.2838,-177.4829 193.9079,-177.2376 197,-174.7 197,-174.7 197,-174.7 193.9079,-177.2376 194.7162,-171.9171 190.8159,-179.7751 190.8159,-179.7751"/>
<ellipse fill="none" stroke="#000000" cx="188.3422" cy="-181.8052" rx="3.2" ry="3.2"/>
</g>
</g>
</svg>
