<?xml version="1.0" encoding="UTF-8" standalone="no"?>
<!DOCTYPE svg PUBLIC "-//W3C//DTD SVG 1.1//EN"
 "http://www.w3.org/Graphics/SVG/1.1/DTD/svg11.dtd">
<!-- Generated by graphviz version 2.40.1 (20161225.0304)
 -->
<!-- Title: largeRelationshipsDiagram Pages: 1 -->
<svg width="347pt" height="484pt"
 viewBox="0.00 0.00 347.30 484.20" xmlns="http://www.w3.org/2000/svg" xmlns:xlink="http://www.w3.org/1999/xlink">
<g id="graph0" class="graph" transform="scale(1 1) rotate(0) translate(4 480.2)">
<title>largeRelationshipsDiagram</title>
<polygon fill="#ffffff" stroke="transparent" points="-4,4 -4,-480.2 343.3047,-480.2 343.3047,4 -4,4"/>
<text text-anchor="middle" x="72.4936" y="-7.3" font-family="Helvetica,sans-Serif" font-size="11.00" fill="#000000">Generated by SchemaSpy</text>
<!-- tsk_task_group -->
<g id="node1" class="node">
<title>tsk_task_group</title>
<g id="a_node1"><a xlink:href="../../tables/tsk_task_group.html" xlink:title="tsk_task_group" target="_top">
<polygon fill="#ffffff" stroke="transparent" points="8,-104.2 8,-344.2 148,-344.2 148,-104.2 8,-104.2"/>
<polygon fill="#f5f5f5" stroke="transparent" points="8,-321.2 8,-344.2 148,-344.2 148,-321.2 8,-321.2"/>
<polygon fill="none" stroke="#000000" points="8,-321.2 8,-344.2 148,-344.2 148,-321.2 8,-321.2"/>
<text text-anchor="start" x="13" y="-329.8" font-family="Helvetica,sans-Serif" font-weight="bold" font-size="11.00" fill="#000000">tsk_task_group</text>
<text text-anchor="start" x="113.5219" y="-329.3" font-family="Helvetica,sans-Serif" font-size="11.00" fill="#000000">[table]</text>
<polygon fill="none" stroke="#000000" points="8,-299.2 8,-321.2 148,-321.2 148,-299.2 8,-299.2"/>
<text text-anchor="start" x="37" y="-306.3" font-family="Helvetica,sans-Serif" font-size="11.00" fill="#000000">c_created</text>
<polygon fill="none" stroke="#000000" points="8,-277.2 8,-299.2 148,-299.2 148,-277.2 8,-277.2"/>
<text text-anchor="start" x="37" y="-284.3" font-family="Helvetica,sans-Serif" font-size="11.00" fill="#000000">c_ol</text>
<polygon fill="none" stroke="#000000" points="8,-255.2 8,-277.2 148,-277.2 148,-255.2 8,-255.2"/>
<image xlink:href="../../images/primaryKeys.png" width="11px" height="12px" preserveAspectRatio="xMinYMin meet" x="13" y="-272.2"/>
<text text-anchor="start" x="37" y="-262.3" font-family="Helvetica,sans-Serif" font-size="11.00" fill="#000000">c_pk</text>
<polygon fill="none" stroke="#000000" points="8,-233.2 8,-255.2 148,-255.2 148,-233.2 8,-233.2"/>
<text text-anchor="start" x="37" y="-240.3" font-family="Helvetica,sans-Serif" font-size="11.00" fill="#000000">c_updated</text>
<polygon fill="none" stroke="#000000" points="8,-211.2 8,-233.2 148,-233.2 148,-211.2 8,-211.2"/>
<text text-anchor="start" x="37" y="-218.3" font-family="Helvetica,sans-Serif" font-size="11.00" fill="#000000">c_created_by</text>
<polygon fill="none" stroke="#000000" points="8,-189.2 8,-211.2 148,-211.2 148,-189.2 8,-189.2"/>
<text text-anchor="start" x="37" y="-196.3" font-family="Helvetica,sans-Serif" font-size="11.00" fill="#000000">c_description</text>
<polygon fill="none" stroke="#000000" points="8,-167.2 8,-189.2 148,-189.2 148,-167.2 8,-167.2"/>
<text text-anchor="start" x="37" y="-174.3" font-family="Helvetica,sans-Serif" font-size="11.00" fill="#000000">c_name</text>
<polygon fill="#ffffff" stroke="transparent" points="8,-145.2 8,-167.2 148,-167.2 148,-145.2 8,-145.2"/>
<polygon fill="none" stroke="#000000" points="8,-145.2 8,-167.2 148,-167.2 148,-145.2 8,-145.2"/>
<text text-anchor="start" x="37" y="-152.3" font-family="Helvetica,sans-Serif" font-size="11.00" fill="#000000">c_pid</text>
<polygon fill="none" stroke="#000000" points="8,-123.2 8,-145.2 148,-145.2 148,-123.2 8,-123.2"/>
<text text-anchor="start" x="37" y="-130.3" font-family="Helvetica,sans-Serif" font-size="11.00" fill="#000000">c_updated_by</text>
<polygon fill="#ffffff" stroke="transparent" points="8,-104.2 8,-123.2 67,-123.2 67,-104.2 8,-104.2"/>
<polygon fill="none" stroke="#000000" points="8,-104.2 8,-123.2 67,-123.2 67,-104.2 8,-104.2"/>
<text text-anchor="start" x="11" y="-110.3" font-family="Helvetica,sans-Serif" font-size="11.00" fill="#000000"> &#160;</text>
<polygon fill="#ffffff" stroke="transparent" points="67,-104.2 67,-123.2 103,-123.2 103,-104.2 67,-104.2"/>
<polygon fill="none" stroke="#000000" points="67,-104.2 67,-123.2 103,-123.2 103,-104.2 67,-104.2"/>
<text text-anchor="start" x="93.8862" y="-110.3" font-family="Helvetica,sans-Serif" font-size="11.00" fill="#000000"> &#160;</text>
<polygon fill="#ffffff" stroke="transparent" points="103,-104.2 103,-123.2 148,-123.2 148,-104.2 103,-104.2"/>
<polygon fill="none" stroke="#000000" points="103,-104.2 103,-123.2 148,-123.2 148,-104.2 103,-104.2"/>
<text text-anchor="start" x="129.4053" y="-110.3" font-family="Helvetica,sans-Serif" font-size="11.00" fill="#000000">1 &gt;</text>
</a>
</g>
</g>
<!-- tsk_task -->
<g id="node2" class="node">
<title>tsk_task</title>
<g id="a_node2"><a xlink:href="../../tables/tsk_task.html" xlink:title="tsk_task" target="_top">
<polygon fill="#ffffff" stroke="transparent" points="197,-38.2 197,-454.2 311,-454.2 311,-38.2 197,-38.2"/>
<polygon fill="#f5f5f5" stroke="transparent" points="197,-431.2 197,-454.2 311,-454.2 311,-431.2 197,-431.2"/>
<polygon fill="none" stroke="#000000" points="197,-431.2 197,-454.2 311,-454.2 311,-431.2 197,-431.2"/>
<text text-anchor="start" x="202" y="-439.8" font-family="Helvetica,sans-Serif" font-weight="bold" font-size="11.00" fill="#000000">tsk_task</text>
<text text-anchor="start" x="276.0437" y="-439.3" font-family="Helvetica,sans-Serif" font-size="11.00" fill="#000000">[table]</text>
<polygon fill="none" stroke="#000000" points="197,-409.2 197,-431.2 311,-431.2 311,-409.2 197,-409.2"/>
<text text-anchor="start" x="217" y="-416.3" font-family="Helvetica,sans-Serif" font-size="11.00" fill="#000000">c_assigned_at</text>
<polygon fill="none" stroke="#000000" points="197,-387.2 197,-409.2 311,-409.2 311,-387.2 197,-387.2"/>
<text text-anchor="start" x="217" y="-394.3" font-family="Helvetica,sans-Serif" font-size="11.00" fill="#000000">c_created</text>
<polygon fill="none" stroke="#000000" points="197,-365.2 197,-387.2 311,-387.2 311,-365.2 197,-365.2"/>
<text text-anchor="start" x="217" y="-372.3" font-family="Helvetica,sans-Serif" font-size="11.00" fill="#000000">c_finished_at</text>
<polygon fill="none" stroke="#000000" points="197,-343.2 197,-365.2 311,-365.2 311,-343.2 197,-343.2"/>
<text text-anchor="start" x="217" y="-350.3" font-family="Helvetica,sans-Serif" font-size="11.00" fill="#000000">c_ol</text>
<polygon fill="none" stroke="#000000" points="197,-321.2 197,-343.2 311,-343.2 311,-321.2 197,-321.2"/>
<image xlink:href="../../images/foreignKeys.png" width="11px" height="12px" preserveAspectRatio="xMinYMin meet" x="202" y="-338.2"/>
<text text-anchor="start" x="217" y="-328.3" font-family="Helvetica,sans-Serif" font-size="11.00" fill="#000000">c_parent_task</text>
<polygon fill="none" stroke="#000000" points="197,-299.2 197,-321.2 311,-321.2 311,-299.2 197,-299.2"/>
<image xlink:href="../../images/primaryKeys.png" width="11px" height="12px" preserveAspectRatio="xMinYMin meet" x="202" y="-316.2"/>
<text text-anchor="start" x="217" y="-306.3" font-family="Helvetica,sans-Serif" font-size="11.00" fill="#000000">c_pk</text>
<polygon fill="none" stroke="#000000" points="197,-277.2 197,-299.2 311,-299.2 311,-277.2 197,-277.2"/>
<text text-anchor="start" x="217" y="-284.3" font-family="Helvetica,sans-Serif" font-size="11.00" fill="#000000">c_started_at</text>
<polygon fill="none" stroke="#000000" points="197,-255.2 197,-277.2 311,-277.2 311,-255.2 197,-255.2"/>
<image xlink:href="../../images/foreignKeys.png" width="11px" height="12px" preserveAspectRatio="xMinYMin meet" x="202" y="-272.2"/>
<text text-anchor="start" x="217" y="-262.3" font-family="Helvetica,sans-Serif" font-size="11.00" fill="#000000">c_task_group</text>
<polygon fill="none" stroke="#000000" points="197,-233.2 197,-255.2 311,-255.2 311,-233.2 197,-233.2"/>
<text text-anchor="start" x="217" y="-240.3" font-family="Helvetica,sans-Serif" font-size="11.00" fill="#000000">c_updated</text>
<polygon fill="none" stroke="#000000" points="197,-211.2 197,-233.2 311,-233.2 311,-211.2 197,-211.2"/>
<text text-anchor="start" x="217" y="-218.3" font-family="Helvetica,sans-Serif" font-size="11.00" fill="#000000">c_assigned_to</text>
<polygon fill="none" stroke="#000000" points="197,-189.2 197,-211.2 311,-211.2 311,-189.2 197,-189.2"/>
<text text-anchor="start" x="217" y="-196.3" font-family="Helvetica,sans-Serif" font-size="11.00" fill="#000000">c_created_by</text>
<polygon fill="none" stroke="#000000" points="197,-167.2 197,-189.2 311,-189.2 311,-167.2 197,-167.2"/>
<text text-anchor="start" x="217" y="-174.3" font-family="Helvetica,sans-Serif" font-size="11.00" fill="#000000">c_description</text>
<polygon fill="#ffffff" stroke="transparent" points="197,-145.2 197,-167.2 311,-167.2 311,-145.2 197,-145.2"/>
<polygon fill="none" stroke="#000000" points="197,-145.2 197,-167.2 311,-167.2 311,-145.2 197,-145.2"/>
<text text-anchor="start" x="217" y="-152.3" font-family="Helvetica,sans-Serif" font-size="11.00" fill="#000000">c_pid</text>
<polygon fill="none" stroke="#000000" points="197,-123.2 197,-145.2 311,-145.2 311,-123.2 197,-123.2"/>
<text text-anchor="start" x="217" y="-130.3" font-family="Helvetica,sans-Serif" font-size="11.00" fill="#000000">c_state</text>
<polygon fill="#ffffff" stroke="transparent" points="197,-101.2 197,-123.2 311,-123.2 311,-101.2 197,-101.2"/>
<polygon fill="none" stroke="#000000" points="197,-101.2 197,-123.2 311,-123.2 311,-101.2 197,-101.2"/>
<text text-anchor="start" x="217" y="-108.3" font-family="Helvetica,sans-Serif" font-size="11.00" fill="#000000">c_task_id</text>
<polygon fill="none" stroke="#000000" points="197,-79.2 197,-101.2 311,-101.2 311,-79.2 197,-79.2"/>
<text text-anchor="start" x="217" y="-86.3" font-family="Helvetica,sans-Serif" font-size="11.00" fill="#000000">c_type</text>
<polygon fill="none" stroke="#000000" points="197,-57.2 197,-79.2 311,-79.2 311,-57.2 197,-57.2"/>
<text text-anchor="start" x="217" y="-64.3" font-family="Helvetica,sans-Serif" font-size="11.00" fill="#000000">c_updated_by</text>
<polygon fill="#ffffff" stroke="transparent" points="197,-38.2 197,-57.2 248,-57.2 248,-38.2 197,-38.2"/>
<polygon fill="none" stroke="#000000" points="197,-38.2 197,-57.2 248,-57.2 248,-38.2 197,-38.2"/>
<text text-anchor="start" x="200" y="-44.3" font-family="Helvetica,sans-Serif" font-size="11.00" fill="#000000">&lt; 2</text>
<polygon fill="#ffffff" stroke="transparent" points="248,-38.2 248,-57.2 275,-57.2 275,-38.2 248,-38.2"/>
<polygon fill="none" stroke="#000000" points="248,-38.2 248,-57.2 275,-57.2 275,-38.2 248,-38.2"/>
<text text-anchor="start" x="265.8862" y="-44.3" font-family="Helvetica,sans-Serif" font-size="11.00" fill="#000000"> &#160;</text>
<polygon fill="#ffffff" stroke="transparent" points="275,-38.2 275,-57.2 311,-57.2 311,-38.2 275,-38.2"/>
<polygon fill="none" stroke="#000000" points="275,-38.2 275,-57.2 311,-57.2 311,-38.2 275,-38.2"/>
<text text-anchor="start" x="292.4053" y="-44.3" font-family="Helvetica,sans-Serif" font-size="11.00" fill="#000000">1 &gt;</text>
</a>
</g>
</g>
<!-- tsk_task&#45;&gt;tsk_task_group -->
<g id="edge2" class="edge">
<title>tsk_task:w&#45;&gt;tsk_task_group:e</title>
<path fill="none" stroke="#000000" d="M182.4909,-266.2C171.1774,-266.2 163.9931,-266.2 148,-266.2"/>
<polygon fill="#000000" stroke="#000000" points="189,-266.2001 197,-269.8 193,-266.2 197,-266.2 197,-266.2 197,-266.2 193,-266.2 197,-262.6 189,-266.2001 189,-266.2001"/>
<ellipse fill="none" stroke="#000000" cx="185.8" cy="-266.2001" rx="3.2" ry="3.2"/>
</g>
<!-- tsk_task&#45;&gt;tsk_task -->
<g id="edge1" class="edge">
<title>tsk_task:w&#45;&gt;tsk_task:e</title>
<path fill="none" stroke="#000000" d="M189.9573,-344.8286C153.324,-414.2447 158.7207,-471.2 254,-471.2 355,-471.2 355,-385.2 311,-310.2"/>
<polygon fill="#000000" stroke="#000000" points="193.1035,-339.187 200.1441,-333.9534 195.0517,-335.6935 197,-332.2 197,-332.2 197,-332.2 195.0517,-335.6935 193.8559,-330.4466 193.1035,-339.187 193.1035,-339.187"/>
<ellipse fill="none" stroke="#000000" cx="191.5449" cy="-341.9817" rx="3.2" ry="3.2"/>
</g>
</g>
</svg>
