<?xml version="1.0" encoding="UTF-8" standalone="no"?>
<!DOCTYPE svg PUBLIC "-//W3C//DTD SVG 1.1//EN"
 "http://www.w3.org/Graphics/SVG/1.1/DTD/svg11.dtd">
<!-- Generated by graphviz version 2.40.1 (20161225.0304)
 -->
<!-- Title: oneDegreeRelationshipsDiagram Pages: 1 -->
<svg width="438pt" height="488pt"
 viewBox="0.00 0.00 438.47 488.20" xmlns="http://www.w3.org/2000/svg" xmlns:xlink="http://www.w3.org/1999/xlink">
<g id="graph0" class="graph" transform="scale(1 1) rotate(0) translate(4 484.2)">
<title>oneDegreeRelationshipsDiagram</title>
<polygon fill="#ffffff" stroke="transparent" points="-4,4 -4,-484.2 434.4727,-484.2 434.4727,4 -4,4"/>
<text text-anchor="middle" x="72.4936" y="-7.3" font-family="Helvetica,sans-Serif" font-size="11.00" fill="#000000">Generated by SchemaSpy</text>
<!-- tsk_task -->
<g id="node1" class="node">
<title>tsk_task</title>
<g id="a_node1"><a xlink:href="../../tables/tsk_task.html" xlink:title="tsk_task" target="_top">
<polygon fill="#ffffff" stroke="transparent" points="197,-38.2 197,-458.2 399,-458.2 399,-38.2 197,-38.2"/>
<polygon fill="#f5f5f5" stroke="transparent" points="199,-433.2 199,-456.2 397,-456.2 397,-433.2 199,-433.2"/>
<polygon fill="none" stroke="#000000" points="199,-433.2 199,-456.2 397,-456.2 397,-433.2 199,-433.2"/>
<text text-anchor="start" x="204" y="-441.8" font-family="Helvetica,sans-Serif" font-weight="bold" font-size="11.00" fill="#000000">tsk_task</text>
<text text-anchor="start" x="362.0437" y="-441.3" font-family="Helvetica,sans-Serif" font-size="11.00" fill="#000000">[table]</text>
<polygon fill="none" stroke="#000000" points="199,-411.2 199,-433.2 313,-433.2 313,-411.2 199,-411.2"/>
<text text-anchor="start" x="219" y="-418.3" font-family="Helvetica,sans-Serif" font-size="11.00" fill="#000000">c_assigned_at</text>
<polygon fill="none" stroke="#000000" points="313,-411.2 313,-433.2 397,-433.2 397,-411.2 313,-411.2"/>
<text text-anchor="start" x="316" y="-418.9" font-family="Helvetica,sans-Serif" font-size="11.00" fill="#000000">timestamp[22]</text>
<polygon fill="none" stroke="#000000" points="199,-389.2 199,-411.2 313,-411.2 313,-389.2 199,-389.2"/>
<text text-anchor="start" x="219" y="-396.3" font-family="Helvetica,sans-Serif" font-size="11.00" fill="#000000">c_created</text>
<polygon fill="none" stroke="#000000" points="313,-389.2 313,-411.2 397,-411.2 397,-389.2 313,-389.2"/>
<text text-anchor="start" x="315.8807" y="-396.9" font-family="Helvetica,sans-Serif" font-size="11.00" fill="#000000">timestamp[29,6]</text>
<polygon fill="none" stroke="#000000" points="199,-367.2 199,-389.2 313,-389.2 313,-367.2 199,-367.2"/>
<text text-anchor="start" x="219" y="-374.3" font-family="Helvetica,sans-Serif" font-size="11.00" fill="#000000">c_finished_at</text>
<polygon fill="none" stroke="#000000" points="313,-367.2 313,-389.2 397,-389.2 397,-367.2 313,-367.2"/>
<text text-anchor="start" x="316" y="-374.9" font-family="Helvetica,sans-Serif" font-size="11.00" fill="#000000">timestamp[22]</text>
<polygon fill="none" stroke="#000000" points="199,-345.2 199,-367.2 313,-367.2 313,-345.2 199,-345.2"/>
<text text-anchor="start" x="219" y="-352.3" font-family="Helvetica,sans-Serif" font-size="11.00" fill="#000000">c_ol</text>
<polygon fill="none" stroke="#000000" points="313,-345.2 313,-367.2 397,-367.2 397,-345.2 313,-345.2"/>
<text text-anchor="start" x="316" y="-352.9" font-family="Helvetica,sans-Serif" font-size="11.00" fill="#000000">int8[19]</text>
<polygon fill="none" stroke="#000000" points="199,-323.2 199,-345.2 313,-345.2 313,-323.2 199,-323.2"/>
<image xlink:href="../../images/foreignKeys.png" width="11px" height="12px" preserveAspectRatio="xMinYMin meet" x="204" y="-340.2"/>
<text text-anchor="start" x="219" y="-330.3" font-family="Helvetica,sans-Serif" font-size="11.00" fill="#000000">c_parent_task</text>
<polygon fill="none" stroke="#000000" points="313,-323.2 313,-345.2 397,-345.2 397,-323.2 313,-323.2"/>
<text text-anchor="start" x="316" y="-330.9" font-family="Helvetica,sans-Serif" font-size="11.00" fill="#000000">int8[19]</text>
<polygon fill="none" stroke="#000000" points="199,-301.2 199,-323.2 313,-323.2 313,-301.2 199,-301.2"/>
<image xlink:href="../../images/primaryKeys.png" width="11px" height="12px" preserveAspectRatio="xMinYMin meet" x="204" y="-318.2"/>
<text text-anchor="start" x="219" y="-308.3" font-family="Helvetica,sans-Serif" font-size="11.00" fill="#000000">c_pk</text>
<polygon fill="none" stroke="#000000" points="313,-301.2 313,-323.2 397,-323.2 397,-301.2 313,-301.2"/>
<text text-anchor="start" x="316" y="-308.9" font-family="Helvetica,sans-Serif" font-size="11.00" fill="#000000">int8[19]</text>
<polygon fill="none" stroke="#000000" points="199,-279.2 199,-301.2 313,-301.2 313,-279.2 199,-279.2"/>
<text text-anchor="start" x="219" y="-286.3" font-family="Helvetica,sans-Serif" font-size="11.00" fill="#000000">c_started_at</text>
<polygon fill="none" stroke="#000000" points="313,-279.2 313,-301.2 397,-301.2 397,-279.2 313,-279.2"/>
<text text-anchor="start" x="316" y="-286.9" font-family="Helvetica,sans-Serif" font-size="11.00" fill="#000000">timestamp[22]</text>
<polygon fill="none" stroke="#000000" points="199,-257.2 199,-279.2 313,-279.2 313,-257.2 199,-257.2"/>
<image xlink:href="../../images/foreignKeys.png" width="11px" height="12px" preserveAspectRatio="xMinYMin meet" x="204" y="-274.2"/>
<text text-anchor="start" x="219" y="-264.3" font-family="Helvetica,sans-Serif" font-size="11.00" fill="#000000">c_task_group</text>
<polygon fill="none" stroke="#000000" points="313,-257.2 313,-279.2 397,-279.2 397,-257.2 313,-257.2"/>
<text text-anchor="start" x="316" y="-264.9" font-family="Helvetica,sans-Serif" font-size="11.00" fill="#000000">int8[19]</text>
<polygon fill="none" stroke="#000000" points="199,-235.2 199,-257.2 313,-257.2 313,-235.2 199,-235.2"/>
<text text-anchor="start" x="219" y="-242.3" font-family="Helvetica,sans-Serif" font-size="11.00" fill="#000000">c_updated</text>
<polygon fill="none" stroke="#000000" points="313,-235.2 313,-257.2 397,-257.2 397,-235.2 313,-235.2"/>
<text text-anchor="start" x="315.8807" y="-242.9" font-family="Helvetica,sans-Serif" font-size="11.00" fill="#000000">timestamp[29,6]</text>
<polygon fill="none" stroke="#000000" points="199,-213.2 199,-235.2 313,-235.2 313,-213.2 199,-213.2"/>
<text text-anchor="start" x="219" y="-220.3" font-family="Helvetica,sans-Serif" font-size="11.00" fill="#000000">c_assigned_to</text>
<polygon fill="none" stroke="#000000" points="313,-213.2 313,-235.2 397,-235.2 397,-213.2 313,-213.2"/>
<text text-anchor="start" x="316" y="-220.9" font-family="Helvetica,sans-Serif" font-size="11.00" fill="#000000">varchar[255]</text>
<polygon fill="none" stroke="#000000" points="199,-191.2 199,-213.2 313,-213.2 313,-191.2 199,-191.2"/>
<text text-anchor="start" x="219" y="-198.3" font-family="Helvetica,sans-Serif" font-size="11.00" fill="#000000">c_created_by</text>
<polygon fill="none" stroke="#000000" points="313,-191.2 313,-213.2 397,-213.2 397,-191.2 313,-191.2"/>
<text text-anchor="start" x="316" y="-198.9" font-family="Helvetica,sans-Serif" font-size="11.00" fill="#000000">varchar[255]</text>
<polygon fill="none" stroke="#000000" points="199,-169.2 199,-191.2 313,-191.2 313,-169.2 199,-169.2"/>
<text text-anchor="start" x="219" y="-176.3" font-family="Helvetica,sans-Serif" font-size="11.00" fill="#000000">c_description</text>
<polygon fill="none" stroke="#000000" points="313,-169.2 313,-191.2 397,-191.2 397,-169.2 313,-169.2"/>
<text text-anchor="start" x="316" y="-176.9" font-family="Helvetica,sans-Serif" font-size="11.00" fill="#000000">varchar[255]</text>
<polygon fill="#ffffff" stroke="transparent" points="199,-147.2 199,-169.2 313,-169.2 313,-147.2 199,-147.2"/>
<polygon fill="none" stroke="#000000" points="199,-147.2 199,-169.2 313,-169.2 313,-147.2 199,-147.2"/>
<text text-anchor="start" x="219" y="-154.3" font-family="Helvetica,sans-Serif" font-size="11.00" fill="#000000">c_pid</text>
<polygon fill="none" stroke="#000000" points="313,-147.2 313,-169.2 397,-169.2 397,-147.2 313,-147.2"/>
<text text-anchor="start" x="316" y="-154.9" font-family="Helvetica,sans-Serif" font-size="11.00" fill="#000000">varchar[255]</text>
<polygon fill="none" stroke="#000000" points="199,-125.2 199,-147.2 313,-147.2 313,-125.2 199,-125.2"/>
<text text-anchor="start" x="219" y="-132.3" font-family="Helvetica,sans-Serif" font-size="11.00" fill="#000000">c_state</text>
<polygon fill="none" stroke="#000000" points="313,-125.2 313,-147.2 397,-147.2 397,-125.2 313,-125.2"/>
<text text-anchor="start" x="316" y="-132.9" font-family="Helvetica,sans-Serif" font-size="11.00" fill="#000000">varchar[255]</text>
<polygon fill="#ffffff" stroke="transparent" points="199,-103.2 199,-125.2 313,-125.2 313,-103.2 199,-103.2"/>
<polygon fill="none" stroke="#000000" points="199,-103.2 199,-125.2 313,-125.2 313,-103.2 199,-103.2"/>
<text text-anchor="start" x="219" y="-110.3" font-family="Helvetica,sans-Serif" font-size="11.00" fill="#000000">c_task_id</text>
<polygon fill="none" stroke="#000000" points="313,-103.2 313,-125.2 397,-125.2 397,-103.2 313,-103.2"/>
<text text-anchor="start" x="316" y="-110.9" font-family="Helvetica,sans-Serif" font-size="11.00" fill="#000000">varchar[255]</text>
<polygon fill="none" stroke="#000000" points="199,-81.2 199,-103.2 313,-103.2 313,-81.2 199,-81.2"/>
<text text-anchor="start" x="219" y="-88.3" font-family="Helvetica,sans-Serif" font-size="11.00" fill="#000000">c_type</text>
<polygon fill="none" stroke="#000000" points="313,-81.2 313,-103.2 397,-103.2 397,-81.2 313,-81.2"/>
<text text-anchor="start" x="316" y="-88.9" font-family="Helvetica,sans-Serif" font-size="11.00" fill="#000000">varchar[255]</text>
<polygon fill="none" stroke="#000000" points="199,-59.2 199,-81.2 313,-81.2 313,-59.2 199,-59.2"/>
<text text-anchor="start" x="219" y="-66.3" font-family="Helvetica,sans-Serif" font-size="11.00" fill="#000000">c_updated_by</text>
<polygon fill="none" stroke="#000000" points="313,-59.2 313,-81.2 397,-81.2 397,-59.2 313,-59.2"/>
<text text-anchor="start" x="316" y="-66.9" font-family="Helvetica,sans-Serif" font-size="11.00" fill="#000000">varchar[255]</text>
<polygon fill="#ffffff" stroke="transparent" points="199,-40.2 199,-59.2 260,-59.2 260,-40.2 199,-40.2"/>
<polygon fill="none" stroke="#000000" points="199,-40.2 199,-59.2 260,-59.2 260,-40.2 199,-40.2"/>
<text text-anchor="start" x="202" y="-46.3" font-family="Helvetica,sans-Serif" font-size="11.00" fill="#000000">&lt; 2</text>
<polygon fill="#ffffff" stroke="transparent" points="260,-40.2 260,-59.2 313,-59.2 313,-40.2 260,-40.2"/>
<polygon fill="none" stroke="#000000" points="260,-40.2 260,-59.2 313,-59.2 313,-40.2 260,-40.2"/>
<text text-anchor="start" x="303.8862" y="-46.3" font-family="Helvetica,sans-Serif" font-size="11.00" fill="#000000"> &#160;</text>
<polygon fill="#ffffff" stroke="transparent" points="313,-40.2 313,-59.2 397,-59.2 397,-40.2 313,-40.2"/>
<polygon fill="none" stroke="#000000" points="313,-40.2 313,-59.2 397,-59.2 397,-40.2 313,-40.2"/>
<text text-anchor="start" x="378.4053" y="-46.3" font-family="Helvetica,sans-Serif" font-size="11.00" fill="#000000">1 &gt;</text>
<polygon fill="none" stroke="#000000" stroke-width="2" points="198,-39.2 198,-457.2 398,-457.2 398,-39.2 198,-39.2"/>
</a>
</g>
</g>
<!-- tsk_task&#45;&gt;tsk_task -->
<g id="edge1" class="edge">
<title>tsk_task:w&#45;&gt;tsk_task:e</title>
<path fill="none" stroke="#000000" d="M190.7722,-346.0764C144.4283,-416.5756 152.1211,-475.2 298,-475.2 452,-475.2 452,-387.8667 397,-312.2"/>
<polygon fill="#000000" stroke="#000000" points="194.4442,-340.7761 201.9592,-336.2501 196.7221,-337.488 199,-334.2 199,-334.2 199,-334.2 196.7221,-337.488 196.0408,-332.1499 194.4442,-340.7761 194.4442,-340.7761"/>
<ellipse fill="none" stroke="#000000" cx="192.6218" cy="-343.4065" rx="3.2" ry="3.2"/>
</g>
<!-- tsk_task_group -->
<g id="node2" class="node">
<title>tsk_task_group</title>
<g id="a_node2"><a xlink:href="../../tables/tsk_task_group.html" xlink:title="tsk_task_group" target="_top">
<polygon fill="#ffffff" stroke="transparent" points="8,-197.7 8,-302.7 148,-302.7 148,-197.7 8,-197.7"/>
<polygon fill="#f5f5f5" stroke="transparent" points="8,-279.2 8,-302.2 148,-302.2 148,-279.2 8,-279.2"/>
<polygon fill="none" stroke="#000000" points="8,-279.2 8,-302.2 148,-302.2 148,-279.2 8,-279.2"/>
<text text-anchor="start" x="13" y="-287.8" font-family="Helvetica,sans-Serif" font-weight="bold" font-size="11.00" fill="#000000">tsk_task_group</text>
<text text-anchor="start" x="113.5219" y="-287.3" font-family="Helvetica,sans-Serif" font-size="11.00" fill="#000000">[table]</text>
<polygon fill="none" stroke="#000000" points="8,-257.2 8,-279.2 148,-279.2 148,-257.2 8,-257.2"/>
<image xlink:href="../../images/primaryKeys.png" width="11px" height="12px" preserveAspectRatio="xMinYMin meet" x="13" y="-274.2"/>
<text text-anchor="start" x="37" y="-264.3" font-family="Helvetica,sans-Serif" font-size="11.00" fill="#000000">c_pk</text>
<polygon fill="#ffffff" stroke="transparent" points="8,-235.2 8,-257.2 148,-257.2 148,-235.2 8,-235.2"/>
<polygon fill="none" stroke="#000000" points="8,-235.2 8,-257.2 148,-257.2 148,-235.2 8,-235.2"/>
<text text-anchor="start" x="37" y="-242.3" font-family="Helvetica,sans-Serif" font-size="11.00" fill="#000000">c_pid</text>
<polygon fill="none" stroke="#000000" points="8,-216.2 8,-235.2 148,-235.2 148,-216.2 8,-216.2"/>
<text text-anchor="start" x="11" y="-222.3" font-family="Helvetica,sans-Serif" font-size="11.00" fill="#000000">...</text>
<polygon fill="#ffffff" stroke="transparent" points="8,-197.2 8,-216.2 67,-216.2 67,-197.2 8,-197.2"/>
<polygon fill="none" stroke="#000000" points="8,-197.2 8,-216.2 67,-216.2 67,-197.2 8,-197.2"/>
<text text-anchor="start" x="11" y="-203.3" font-family="Helvetica,sans-Serif" font-size="11.00" fill="#000000"> &#160;</text>
<polygon fill="#ffffff" stroke="transparent" points="67,-197.2 67,-216.2 103,-216.2 103,-197.2 67,-197.2"/>
<polygon fill="none" stroke="#000000" points="67,-197.2 67,-216.2 103,-216.2 103,-197.2 67,-197.2"/>
<text text-anchor="start" x="93.8862" y="-203.3" font-family="Helvetica,sans-Serif" font-size="11.00" fill="#000000"> &#160;</text>
<polygon fill="#ffffff" stroke="transparent" points="103,-197.2 103,-216.2 148,-216.2 148,-197.2 103,-197.2"/>
<polygon fill="none" stroke="#000000" points="103,-197.2 103,-216.2 148,-216.2 148,-197.2 103,-197.2"/>
<text text-anchor="start" x="129.4053" y="-203.3" font-family="Helvetica,sans-Serif" font-size="11.00" fill="#000000">1 &gt;</text>
</a>
</g>
</g>
<!-- tsk_task&#45;&gt;tsk_task_group -->
<g id="edge2" class="edge">
<title>tsk_task:w&#45;&gt;tsk_task_group:e</title>
<path fill="none" stroke="#000000" d="M184.276,-268.2C172.2815,-268.2 164.8229,-268.2 148,-268.2"/>
<polygon fill="#000000" stroke="#000000" points="191,-268.2001 199,-271.8 195,-268.2 199,-268.2 199,-268.2 199,-268.2 195,-268.2 199,-264.6 191,-268.2001 191,-268.2001"/>
<ellipse fill="none" stroke="#000000" cx="187.8" cy="-268.2001" rx="3.2" ry="3.2"/>
</g>
</g>
</svg>
