<?xml version="1.0" encoding="UTF-8" standalone="no"?>
<!DOCTYPE svg PUBLIC "-//W3C//DTD SVG 1.1//EN"
 "http://www.w3.org/Graphics/SVG/1.1/DTD/svg11.dtd">
<!-- Generated by graphviz version 2.40.1 (20161225.0304)
 -->
<!-- Title: oneDegreeRelationshipsDiagram Pages: 1 -->
<svg width="397pt" height="294pt"
 viewBox="0.00 0.00 397.00 294.20" xmlns="http://www.w3.org/2000/svg" xmlns:xlink="http://www.w3.org/1999/xlink">
<g id="graph0" class="graph" transform="scale(1 1) rotate(0) translate(4 290.2)">
<title>oneDegreeRelationshipsDiagram</title>
<polygon fill="#ffffff" stroke="transparent" points="-4,4 -4,-290.2 393,-290.2 393,4 -4,4"/>
<text text-anchor="middle" x="72.4936" y="-7.3" font-family="Helvetica,sans-Serif" font-size="11.00" fill="#000000">Generated by SchemaSpy</text>
<!-- tsk_task -->
<g id="node1" class="node">
<title>tsk_task</title>
<g id="a_node1"><a xlink:href="../../tables/tsk_task.html" xlink:title="tsk_task" target="_top">
<polygon fill="#ffffff" stroke="transparent" points="267,-109.7 267,-280.7 381,-280.7 381,-109.7 267,-109.7"/>
<polygon fill="#f5f5f5" stroke="transparent" points="267,-257.2 267,-280.2 381,-280.2 381,-257.2 267,-257.2"/>
<polygon fill="none" stroke="#000000" points="267,-257.2 267,-280.2 381,-280.2 381,-257.2 267,-257.2"/>
<text text-anchor="start" x="272" y="-265.8" font-family="Helvetica,sans-Serif" font-weight="bold" font-size="11.00" fill="#000000">tsk_task</text>
<text text-anchor="start" x="346.0437" y="-265.3" font-family="Helvetica,sans-Serif" font-size="11.00" fill="#000000">[table]</text>
<polygon fill="none" stroke="#000000" points="267,-235.2 267,-257.2 381,-257.2 381,-235.2 267,-235.2"/>
<image xlink:href="../../images/foreignKeys.png" width="11px" height="12px" preserveAspectRatio="xMinYMin meet" x="272" y="-252.2"/>
<text text-anchor="start" x="287" y="-242.3" font-family="Helvetica,sans-Serif" font-size="11.00" fill="#000000">c_parent_task</text>
<polygon fill="none" stroke="#000000" points="267,-213.2 267,-235.2 381,-235.2 381,-213.2 267,-213.2"/>
<image xlink:href="../../images/primaryKeys.png" width="11px" height="12px" preserveAspectRatio="xMinYMin meet" x="272" y="-230.2"/>
<text text-anchor="start" x="287" y="-220.3" font-family="Helvetica,sans-Serif" font-size="11.00" fill="#000000">c_pk</text>
<polygon fill="none" stroke="#000000" points="267,-191.2 267,-213.2 381,-213.2 381,-191.2 267,-191.2"/>
<image xlink:href="../../images/foreignKeys.png" width="11px" height="12px" preserveAspectRatio="xMinYMin meet" x="272" y="-208.2"/>
<text text-anchor="start" x="287" y="-198.3" font-family="Helvetica,sans-Serif" font-size="11.00" fill="#000000">c_task_group</text>
<polygon fill="#ffffff" stroke="transparent" points="267,-169.2 267,-191.2 381,-191.2 381,-169.2 267,-169.2"/>
<polygon fill="none" stroke="#000000" points="267,-169.2 267,-191.2 381,-191.2 381,-169.2 267,-169.2"/>
<text text-anchor="start" x="287" y="-176.3" font-family="Helvetica,sans-Serif" font-size="11.00" fill="#000000">c_pid</text>
<polygon fill="#ffffff" stroke="transparent" points="267,-147.2 267,-169.2 381,-169.2 381,-147.2 267,-147.2"/>
<polygon fill="none" stroke="#000000" points="267,-147.2 267,-169.2 381,-169.2 381,-147.2 267,-147.2"/>
<text text-anchor="start" x="287" y="-154.3" font-family="Helvetica,sans-Serif" font-size="11.00" fill="#000000">c_task_id</text>
<polygon fill="none" stroke="#000000" points="267,-128.2 267,-147.2 381,-147.2 381,-128.2 267,-128.2"/>
<text text-anchor="start" x="270" y="-134.3" font-family="Helvetica,sans-Serif" font-size="11.00" fill="#000000">...</text>
<polygon fill="#ffffff" stroke="transparent" points="267,-109.2 267,-128.2 318,-128.2 318,-109.2 267,-109.2"/>
<polygon fill="none" stroke="#000000" points="267,-109.2 267,-128.2 318,-128.2 318,-109.2 267,-109.2"/>
<text text-anchor="start" x="270" y="-115.3" font-family="Helvetica,sans-Serif" font-size="11.00" fill="#000000">&lt; 2</text>
<polygon fill="#ffffff" stroke="transparent" points="318,-109.2 318,-128.2 345,-128.2 345,-109.2 318,-109.2"/>
<polygon fill="none" stroke="#000000" points="318,-109.2 318,-128.2 345,-128.2 345,-109.2 318,-109.2"/>
<text text-anchor="start" x="335.8862" y="-115.3" font-family="Helvetica,sans-Serif" font-size="11.00" fill="#000000"> &#160;</text>
<polygon fill="#ffffff" stroke="transparent" points="345,-109.2 345,-128.2 381,-128.2 381,-109.2 345,-109.2"/>
<polygon fill="none" stroke="#000000" points="345,-109.2 345,-128.2 381,-128.2 381,-109.2 345,-109.2"/>
<text text-anchor="start" x="362.4053" y="-115.3" font-family="Helvetica,sans-Serif" font-size="11.00" fill="#000000">1 &gt;</text>
</a>
</g>
</g>
<!-- tsk_task_group -->
<g id="node2" class="node">
<title>tsk_task_group</title>
<g id="a_node2"><a xlink:href="../../tables/tsk_task_group.html" xlink:title="tsk_task_group" target="_top">
<polygon fill="#ffffff" stroke="transparent" points="8,-38.2 8,-282.2 218,-282.2 218,-38.2 8,-38.2"/>
<polygon fill="#f5f5f5" stroke="transparent" points="10,-257.2 10,-280.2 216,-280.2 216,-257.2 10,-257.2"/>
<polygon fill="none" stroke="#000000" points="10,-257.2 10,-280.2 216,-280.2 216,-257.2 10,-257.2"/>
<text text-anchor="start" x="15" y="-265.8" font-family="Helvetica,sans-Serif" font-weight="bold" font-size="11.00" fill="#000000">tsk_task_group</text>
<text text-anchor="start" x="181.0437" y="-265.3" font-family="Helvetica,sans-Serif" font-size="11.00" fill="#000000">[table]</text>
<polygon fill="none" stroke="#000000" points="10,-235.2 10,-257.2 132,-257.2 132,-235.2 10,-235.2"/>
<text text-anchor="start" x="30" y="-242.3" font-family="Helvetica,sans-Serif" font-size="11.00" fill="#000000">c_created</text>
<polygon fill="none" stroke="#000000" points="132,-235.2 132,-257.2 216,-257.2 216,-235.2 132,-235.2"/>
<text text-anchor="start" x="134.8807" y="-242.9" font-family="Helvetica,sans-Serif" font-size="11.00" fill="#000000">timestamp[29,6]</text>
<polygon fill="none" stroke="#000000" points="10,-213.2 10,-235.2 132,-235.2 132,-213.2 10,-213.2"/>
<text text-anchor="start" x="30" y="-220.3" font-family="Helvetica,sans-Serif" font-size="11.00" fill="#000000">c_ol</text>
<polygon fill="none" stroke="#000000" points="132,-213.2 132,-235.2 216,-235.2 216,-213.2 132,-213.2"/>
<text text-anchor="start" x="135" y="-220.9" font-family="Helvetica,sans-Serif" font-size="11.00" fill="#000000">int8[19]</text>
<polygon fill="none" stroke="#000000" points="10,-191.2 10,-213.2 132,-213.2 132,-191.2 10,-191.2"/>
<image xlink:href="../../images/primaryKeys.png" width="11px" height="12px" preserveAspectRatio="xMinYMin meet" x="15" y="-208.2"/>
<text text-anchor="start" x="30" y="-198.3" font-family="Helvetica,sans-Serif" font-size="11.00" fill="#000000">c_pk</text>
<polygon fill="none" stroke="#000000" points="132,-191.2 132,-213.2 216,-213.2 216,-191.2 132,-191.2"/>
<text text-anchor="start" x="135" y="-198.9" font-family="Helvetica,sans-Serif" font-size="11.00" fill="#000000">int8[19]</text>
<polygon fill="none" stroke="#000000" points="10,-169.2 10,-191.2 132,-191.2 132,-169.2 10,-169.2"/>
<text text-anchor="start" x="30" y="-176.3" font-family="Helvetica,sans-Serif" font-size="11.00" fill="#000000">c_updated</text>
<polygon fill="none" stroke="#000000" points="132,-169.2 132,-191.2 216,-191.2 216,-169.2 132,-169.2"/>
<text text-anchor="start" x="134.8807" y="-176.9" font-family="Helvetica,sans-Serif" font-size="11.00" fill="#000000">timestamp[29,6]</text>
<polygon fill="none" stroke="#000000" points="10,-147.2 10,-169.2 132,-169.2 132,-147.2 10,-147.2"/>
<text text-anchor="start" x="30" y="-154.3" font-family="Helvetica,sans-Serif" font-size="11.00" fill="#000000">c_created_by</text>
<polygon fill="none" stroke="#000000" points="132,-147.2 132,-169.2 216,-169.2 216,-147.2 132,-147.2"/>
<text text-anchor="start" x="135" y="-154.9" font-family="Helvetica,sans-Serif" font-size="11.00" fill="#000000">varchar[255]</text>
<polygon fill="none" stroke="#000000" points="10,-125.2 10,-147.2 132,-147.2 132,-125.2 10,-125.2"/>
<text text-anchor="start" x="30" y="-132.3" font-family="Helvetica,sans-Serif" font-size="11.00" fill="#000000">c_description</text>
<polygon fill="none" stroke="#000000" points="132,-125.2 132,-147.2 216,-147.2 216,-125.2 132,-125.2"/>
<text text-anchor="start" x="135" y="-132.9" font-family="Helvetica,sans-Serif" font-size="11.00" fill="#000000">varchar[255]</text>
<polygon fill="none" stroke="#000000" points="10,-103.2 10,-125.2 132,-125.2 132,-103.2 10,-103.2"/>
<text text-anchor="start" x="30" y="-110.3" font-family="Helvetica,sans-Serif" font-size="11.00" fill="#000000">c_name</text>
<polygon fill="none" stroke="#000000" points="132,-103.2 132,-125.2 216,-125.2 216,-103.2 132,-103.2"/>
<text text-anchor="start" x="135" y="-110.9" font-family="Helvetica,sans-Serif" font-size="11.00" fill="#000000">varchar[255]</text>
<polygon fill="#ffffff" stroke="transparent" points="10,-81.2 10,-103.2 132,-103.2 132,-81.2 10,-81.2"/>
<polygon fill="none" stroke="#000000" points="10,-81.2 10,-103.2 132,-103.2 132,-81.2 10,-81.2"/>
<text text-anchor="start" x="30" y="-88.3" font-family="Helvetica,sans-Serif" font-size="11.00" fill="#000000">c_pid</text>
<polygon fill="none" stroke="#000000" points="132,-81.2 132,-103.2 216,-103.2 216,-81.2 132,-81.2"/>
<text text-anchor="start" x="135" y="-88.9" font-family="Helvetica,sans-Serif" font-size="11.00" fill="#000000">varchar[255]</text>
<polygon fill="none" stroke="#000000" points="10,-59.2 10,-81.2 132,-81.2 132,-59.2 10,-59.2"/>
<text text-anchor="start" x="30" y="-66.3" font-family="Helvetica,sans-Serif" font-size="11.00" fill="#000000">c_updated_by</text>
<polygon fill="none" stroke="#000000" points="132,-59.2 132,-81.2 216,-81.2 216,-59.2 132,-59.2"/>
<text text-anchor="start" x="135" y="-66.9" font-family="Helvetica,sans-Serif" font-size="11.00" fill="#000000">varchar[255]</text>
<polygon fill="#ffffff" stroke="transparent" points="10,-40.2 10,-59.2 75,-59.2 75,-40.2 10,-40.2"/>
<polygon fill="none" stroke="#000000" points="10,-40.2 10,-59.2 75,-59.2 75,-40.2 10,-40.2"/>
<text text-anchor="start" x="13" y="-46.3" font-family="Helvetica,sans-Serif" font-size="11.00" fill="#000000">&lt; 0</text>
<polygon fill="#ffffff" stroke="transparent" points="75,-40.2 75,-59.2 132,-59.2 132,-40.2 75,-40.2"/>
<polygon fill="none" stroke="#000000" points="75,-40.2 75,-59.2 132,-59.2 132,-40.2 75,-40.2"/>
<text text-anchor="start" x="122.8862" y="-46.3" font-family="Helvetica,sans-Serif" font-size="11.00" fill="#000000"> &#160;</text>
<polygon fill="#ffffff" stroke="transparent" points="132,-40.2 132,-59.2 216,-59.2 216,-40.2 132,-40.2"/>
<polygon fill="none" stroke="#000000" points="132,-40.2 132,-59.2 216,-59.2 216,-40.2 132,-40.2"/>
<text text-anchor="start" x="197.4053" y="-46.3" font-family="Helvetica,sans-Serif" font-size="11.00" fill="#000000">1 &gt;</text>
<polygon fill="none" stroke="#000000" stroke-width="2" points="9,-39.2 9,-281.2 217,-281.2 217,-39.2 9,-39.2"/>
</a>
</g>
</g>
<!-- tsk_task&#45;&gt;tsk_task_group -->
<g id="edge1" class="edge">
<title>tsk_task:w&#45;&gt;tsk_task_group:e</title>
<path fill="none" stroke="#000000" d="M252.276,-202.2C240.2815,-202.2 232.8229,-202.2 216,-202.2"/>
<polygon fill="#000000" stroke="#000000" points="259,-202.2001 267,-205.8 263,-202.2 267,-202.2 267,-202.2 267,-202.2 263,-202.2 267,-198.6 259,-202.2001 259,-202.2001"/>
<ellipse fill="none" stroke="#000000" cx="255.8" cy="-202.2001" rx="3.2" ry="3.2"/>
</g>
</g>
</svg>
